<svg version="1.1" id="Layer_1" xmlns="http://www.w3.org/2000/svg" xmlns:xlink="http://www.w3.org/1999/xlink" x="0px" y="0px"
	 width="100%" viewBox="0 0 221 166" enable-background="new 0 0 221 166" xml:space="preserve">
<path fill="#FFFEFE" opacity="1.000000" stroke="none" 
	d="
M134.000000,167.000000 
	C89.361877,167.000000 45.223763,167.000000 1.042821,167.000000 
	C1.042821,111.731010 1.042821,56.461971 1.042821,1.000000 
	C37.744987,1.000000 74.490318,1.000000 111.235641,1.000000 
	C148.045166,1.000000 184.854691,1.000000 221.832108,1.000000 
	C221.832108,56.332924 221.832108,111.666412 221.832108,167.000000 
	C192.795609,167.000000 163.647797,167.000000 134.000000,167.000000 
M188.484161,92.201950 
	C188.484161,84.648376 188.484161,77.094810 188.484161,69.354805 
	C184.674332,69.568947 181.565994,70.341644 178.721191,69.779861 
	C172.681885,68.587250 167.463135,69.384773 163.274384,74.103188 
	C159.280518,78.602081 158.535339,85.488930 161.273651,90.904694 
	C164.056305,96.408165 169.105652,99.153961 175.627548,98.744637 
	C176.684891,98.678268 177.749985,98.735313 178.995483,98.735313 
	C175.729370,103.496208 173.860382,103.852203 166.302582,101.251038 
	C165.046707,102.767586 163.739716,104.345863 162.328629,106.049858 
	C167.925293,110.589554 173.545395,111.605003 179.550293,108.965042 
	C186.376358,105.964066 188.529785,100.109276 188.484161,92.201950 
M135.215424,108.470497 
	C146.217834,112.857849 156.452866,108.270325 157.634552,97.424644 
	C158.632904,88.261566 157.840210,78.903351 157.840210,69.317345 
	C154.361664,69.558609 151.184387,70.441795 148.318588,69.840500 
	C142.253479,68.567955 136.954834,69.263870 132.845688,74.072319 
	C128.732056,78.886002 127.634247,84.419357 130.459076,90.319542 
	C133.260590,96.171005 137.984116,99.002960 144.503601,98.782661 
	C145.694275,98.742424 146.887482,98.776917 148.428986,98.776917 
	C144.867844,103.575073 142.640289,103.942184 135.957687,101.126663 
	C134.717789,102.555679 133.426895,104.043449 131.932602,105.765648 
	C132.916107,106.626862 133.753586,107.360199 135.215424,108.470497 
M97.313362,83.828064 
	C97.043526,71.816231 93.113098,68.801201 78.563309,69.975403 
	C78.563309,66.061470 78.563309,62.195351 78.563309,57.960766 
	C75.479988,58.493168 73.072807,58.908817 70.522842,59.349125 
	C70.522842,72.560059 70.522842,85.462143 70.522842,98.601913 
	C73.310081,98.601913 75.841484,98.601913 78.858391,98.601913 
	C78.858391,93.150551 78.764366,88.025276 78.893700,82.905640 
	C78.971153,79.839584 80.050537,77.250900 83.703995,77.095215 
	C87.603836,76.929031 88.998886,79.438255 89.082382,82.804665 
	C89.212852,88.065247 89.116943,93.331451 89.116943,98.757004 
	C92.170067,98.757004 94.455109,98.757004 97.313049,98.757004 
	C97.313049,93.973686 97.313049,89.362656 97.313362,83.828064 
M36.971489,69.691338 
	C32.718819,79.635948 35.185780,89.719612 43.277874,95.468605 
	C50.927002,100.902885 60.874226,100.617699 67.842056,94.565025 
	C66.771820,92.686150 65.674538,90.759804 64.597786,88.869499 
	C56.299477,92.889824 50.590435,92.253815 46.127998,87.085640 
	C42.479034,82.859604 41.869900,76.283310 45.306976,71.844543 
	C46.943565,69.730980 49.461895,67.353416 51.866211,66.991501 
	C56.009262,66.367867 60.375393,67.226242 65.305214,67.499069 
	C65.820694,66.593338 66.863243,64.761528 67.870949,62.990925 
	C57.593155,54.805023 44.741920,57.481030 36.971489,69.691338 
M122.072716,72.355049 
	C114.351265,67.165459 106.321648,68.372551 101.627861,75.428513 
	C96.879013,82.567245 98.726852,92.426636 105.679520,97.046524 
	C112.370850,101.492783 120.866249,99.836853 125.282578,93.130890 
	C123.209137,90.775917 121.426125,89.377792 117.870338,91.548065 
	C114.050049,93.879768 110.346222,92.121513 107.912689,87.438889 
	C111.997597,87.438889 115.745865,87.438797 119.494133,87.438911 
	C127.627274,87.439163 129.308868,84.777428 125.716400,77.334145 
	C124.938362,75.722099 123.657181,74.352898 122.072716,72.355049 
z"/>
<path fill="#FF7409" opacity="1.000000" stroke="none" 
	d="
M188.483398,92.661057 
	C188.529785,100.109276 186.376358,105.964066 179.550293,108.965042 
	C173.545395,111.605003 167.925293,110.589554 162.328629,106.049858 
	C163.739716,104.345863 165.046707,102.767586 166.302582,101.251038 
	C173.860382,103.852203 175.729370,103.496208 178.995483,98.735313 
	C177.749985,98.735313 176.684891,98.678268 175.627548,98.744637 
	C169.105652,99.153961 164.056305,96.408165 161.273651,90.904694 
	C158.535339,85.488930 159.280518,78.602081 163.274384,74.103188 
	C167.463135,69.384773 172.681885,68.587250 178.721191,69.779861 
	C181.565994,70.341644 184.674332,69.568947 188.484161,69.354805 
	C188.484161,77.094810 188.484161,84.648376 188.483398,92.661057 
M169.644745,88.768463 
	C172.748398,91.880981 176.620697,92.407478 179.058990,88.966751 
	C180.597504,86.795746 180.772522,82.665169 179.854950,80.000397 
	C178.728256,76.728355 175.122482,75.972801 171.869568,77.588051 
	C167.994904,79.512032 167.251099,82.907684 168.418579,86.850502 
	C168.555389,87.312584 168.903198,87.712181 169.644745,88.768463 
z"/>
<path fill="#FF7509" opacity="1.000000" stroke="none" 
	d="
M134.903244,108.282021 
	C133.753586,107.360199 132.916107,106.626862 131.932602,105.765648 
	C133.426895,104.043449 134.717789,102.555679 135.957687,101.126663 
	C142.640289,103.942184 144.867844,103.575073 148.428986,98.776917 
	C146.887482,98.776917 145.694275,98.742424 144.503601,98.782661 
	C137.984116,99.002960 133.260590,96.171005 130.459076,90.319542 
	C127.634247,84.419357 128.732056,78.886002 132.845688,74.072319 
	C136.954834,69.263870 142.253479,68.567955 148.318588,69.840500 
	C151.184387,70.441795 154.361664,69.558609 157.840210,69.317345 
	C157.840210,78.903351 158.632904,88.261566 157.634552,97.424644 
	C156.452866,108.270325 146.217834,112.857849 134.903244,108.282021 
M138.934677,88.589424 
	C143.393250,92.101402 147.564484,91.806320 149.846191,87.727196 
	C151.709579,84.395874 151.455582,80.799042 148.399994,78.788292 
	C146.475586,77.521904 142.818573,77.130486 140.810913,78.118591 
	C136.769897,80.107430 136.382324,83.986061 138.934677,88.589424 
z"/>
<path fill="#FF7913" opacity="1.000000" stroke="none" 
	d="
M97.313202,84.289848 
	C97.313049,89.362656 97.313049,93.973686 97.313049,98.757004 
	C94.455109,98.757004 92.170067,98.757004 89.116943,98.757004 
	C89.116943,93.331451 89.212852,88.065247 89.082382,82.804665 
	C88.998886,79.438255 87.603836,76.929031 83.703995,77.095215 
	C80.050537,77.250900 78.971153,79.839584 78.893700,82.905640 
	C78.764366,88.025276 78.858391,93.150551 78.858391,98.601913 
	C75.841484,98.601913 73.310081,98.601913 70.522842,98.601913 
	C70.522842,85.462143 70.522842,72.560059 70.522842,59.349125 
	C73.072807,58.908817 75.479988,58.493168 78.563309,57.960766 
	C78.563309,62.195351 78.563309,66.061470 78.563309,69.975403 
	C93.113098,68.801201 97.043526,71.816231 97.313202,84.289848 
z"/>
<path fill="#FF750C" opacity="1.000000" stroke="none" 
	d="
M37.144295,69.351830 
	C44.741920,57.481030 57.593155,54.805023 67.870949,62.990925 
	C66.863243,64.761528 65.820694,66.593338 65.305214,67.499069 
	C60.375393,67.226242 56.009262,66.367867 51.866211,66.991501 
	C49.461895,67.353416 46.943565,69.730980 45.306976,71.844543 
	C41.869900,76.283310 42.479034,82.859604 46.127998,87.085640 
	C50.590435,92.253815 56.299477,92.889824 64.597786,88.869499 
	C65.674538,90.759804 66.771820,92.686150 67.842056,94.565025 
	C60.874226,100.617699 50.927002,100.902885 43.277874,95.468605 
	C35.185780,89.719612 32.718819,79.635948 37.144295,69.351830 
z"/>
<path fill="#FF760D" opacity="1.000000" stroke="none" 
	d="
M122.340233,72.613449 
	C123.657181,74.352898 124.938362,75.722099 125.716400,77.334145 
	C129.308868,84.777428 127.627274,87.439163 119.494133,87.438911 
	C115.745865,87.438797 111.997597,87.438889 107.912689,87.438889 
	C110.346222,92.121513 114.050049,93.879768 117.870338,91.548065 
	C121.426125,89.377792 123.209137,90.775917 125.282578,93.130890 
	C120.866249,99.836853 112.370850,101.492783 105.679520,97.046524 
	C98.726852,92.426636 96.879013,82.567245 101.627861,75.428513 
	C106.321648,68.372551 114.351265,67.165459 122.340233,72.613449 
M114.991661,75.457771 
	C109.418343,75.561874 107.647026,77.054001 107.446541,81.681870 
	C111.612236,81.681870 115.775009,81.681870 119.937775,81.681870 
	C120.171021,81.286758 120.404274,80.891655 120.637520,80.496544 
	C118.990761,78.912712 117.343994,77.328880 114.991661,75.457771 
z"/>
<path fill="#FFFAF7" opacity="1.000000" stroke="none" 
	d="
M169.398972,88.454605 
	C168.903198,87.712181 168.555389,87.312584 168.418579,86.850502 
	C167.251099,82.907684 167.994904,79.512032 171.869568,77.588051 
	C175.122482,75.972801 178.728256,76.728355 179.854950,80.000397 
	C180.772522,82.665169 180.597504,86.795746 179.058990,88.966751 
	C176.620697,92.407478 172.748398,91.880981 169.398972,88.454605 
z"/>
<path fill="#FFF8F5" opacity="1.000000" stroke="none" 
	d="
M138.703766,88.279572 
	C136.382324,83.986061 136.769897,80.107430 140.810913,78.118591 
	C142.818573,77.130486 146.475586,77.521904 148.399994,78.788292 
	C151.455582,80.799042 151.709579,84.395874 149.846191,87.727196 
	C147.564484,91.806320 143.393250,92.101402 138.703766,88.279572 
z"/>
<path fill="#FFF6F1" opacity="1.000000" stroke="none" 
	d="
M115.344452,75.601410 
	C117.343994,77.328880 118.990761,78.912712 120.637520,80.496544 
	C120.404274,80.891655 120.171021,81.286758 119.937775,81.681870 
	C115.775009,81.681870 111.612236,81.681870 107.446541,81.681870 
	C107.647026,77.054001 109.418343,75.561874 115.344452,75.601410 
z"/>
</svg>